<svg width="406" height="194" viewBox="0 0 406 194" fill="none" xmlns="http://www.w3.org/2000/svg">
<path d="M2.5844 85.644V140.551L145.975 85.644H2.5844ZM0 144.307V83.0587H159.953L0 144.307Z" fill="#1A1A1A"/>
<path d="M23.9568 51.5973V43.712H12.0912C11.5444 44.396 11.1573 45.0786 10.9333 45.7586C10.7032 46.4413 10.5896 47.192 10.5896 48.0093C10.5896 49.6027 11.0235 50.9533 11.8881 52.0667C12.75 53.184 14.4281 54.088 15.8387 54.088C18.522 54.088 20.8647 54.0066 23.9568 51.5973ZM38.96 59.5346H23.9568V55.076L10.8767 60.1013C10.8767 60.1013 10.0792 60.088 8.91935 59.8253C6.88815 59.3667 5.30895 58.5093 4.18135 57.2507C2.40895 55.2707 1.51988 52.876 1.51988 50.056C1.51988 48.4187 2.08761 46.7933 3.22668 45.18C4.36201 43.5667 6.02201 42.0333 8.20321 40.576H23.9568V36.8947C23.9568 31.5747 21.1147 28.916 15.4324 28.916C13.7188 28.916 9.94015 30.2907 7.17815 31.3947L1.29175 29.1493L18.9548 22.428C23.2735 22.428 26.8543 23.5507 29.2423 25.6427C31.6287 27.7333 32.822 30.756 32.822 34.7093V54.78L38.96 57.164V59.5346" fill="#1A1A1A"/>
<path d="M59.7891 60.0894C57.0418 59.7627 54.9568 58.8147 53.5366 57.2507C51.7396 55.2707 50.8428 52.2147 50.8428 48.0774V22.3014H43.4778V18.9147L56.7778 13.7574H59.7068V19.1614H71.9854V22.3014H59.7068V48.624C59.7068 52.2147 61.4834 54.012 65.0278 54.012C65.9819 54.012 68.6918 53.7373 71.4584 51.916L73.564 54.8587C73.564 54.8587 61.7902 59.3387 59.7891 60.0894" fill="#1A1A1A"/>
<path d="M102.249 59.6027H81.1747V57.148L87.244 54.8773V9.38536L81.1747 7.02399V4.56802L93.1787 2.38976e-05H96.108V54.78L102.249 57.164V59.6027" fill="#1A1A1A"/>
<path d="M134.111 51.5973V43.712H122.244C121.697 44.396 121.311 45.0786 121.087 45.7586C120.856 46.4413 120.743 47.192 120.743 48.0093C120.743 49.6027 121.176 50.9533 122.04 52.0667C122.903 53.184 124.581 54.088 125.991 54.088C128.675 54.088 131.019 54.0066 134.111 51.5973ZM149.112 59.5346H134.111V55.076L121.029 60.1013C121.029 60.1013 120.232 60.088 119.072 59.8253C117.041 59.3667 115.463 58.5093 114.333 57.2507C112.561 55.2707 111.672 52.876 111.672 50.056C111.672 48.4187 112.24 46.7933 113.379 45.18C114.515 43.5667 116.175 42.0333 118.356 40.576H134.111V36.8947C134.111 31.5747 131.268 28.916 125.587 28.916C123.872 28.916 120.092 30.2907 117.332 31.3947L111.444 29.1493L129.108 22.428C133.425 22.428 137.008 23.5507 139.395 25.6427C141.781 27.7333 142.975 30.756 142.975 34.7093V54.78L149.112 57.164V59.5346" fill="#1A1A1A"/>
<path d="M219.088 96.2201C221.889 92.7121 223.291 87.6014 223.291 80.8921C223.291 74.2427 221.889 69.1774 219.088 65.7001C216.285 62.2214 212.421 60.4774 207.496 60.4774C202.571 60.4774 198.723 62.2014 195.952 65.6494C193.181 69.1014 191.796 74.1827 191.796 80.8921C191.796 87.6667 193.181 92.792 195.952 96.2694C198.723 99.748 202.571 101.485 207.496 101.485C212.421 101.485 216.285 99.7321 219.088 96.2201V96.2201ZM189.949 110.585C184.961 107.844 181.131 103.921 178.449 98.8107C175.771 93.7 174.433 87.7267 174.433 80.8921C174.433 74.0574 175.787 68.1147 178.497 63.064C181.205 58.0187 185.037 54.1254 189.993 51.3841C194.949 48.6441 200.784 47.2747 207.496 47.2747C214.208 47.2747 220.04 48.6441 224.999 51.3841C229.955 54.1254 233.757 58.0187 236.405 63.064C239.051 68.1147 240.376 74.0574 240.376 80.8921C240.376 87.7267 239.051 93.7 236.405 98.8107C233.757 103.921 229.955 107.844 224.999 110.585C220.04 113.325 214.208 114.695 207.496 114.695C200.784 114.695 194.937 113.325 189.949 110.585Z" fill="#1A1A1A"/>
<path d="M279.721 99.176C281.26 97.2067 282.029 94.3147 282.029 90.4973C282.029 86.6187 281.245 83.6174 279.675 81.4934C278.103 79.368 275.841 78.3067 272.887 78.3067C269.868 78.3067 267.561 79.3173 265.96 81.3533C264.357 83.3813 263.557 86.3733 263.557 90.3107C263.557 94.1307 264.357 97.0507 265.96 99.0867C267.561 101.115 269.868 102.132 272.887 102.132C275.901 102.132 278.181 101.149 279.721 99.176V99.176ZM288.679 68.7907C291.82 70.8853 294.28 73.8107 296.067 77.5653C297.853 81.3227 298.745 85.632 298.745 90.4973C298.745 95.2973 297.868 99.532 296.115 103.195C294.359 106.857 291.913 109.679 288.771 111.647C285.632 113.617 282.029 114.599 277.965 114.599C274.887 114.599 272.087 114.003 269.56 112.8C267.035 111.597 265.095 109.923 263.743 107.764V133.811H247.028V80.4307C247.028 75.38 246.779 70.8853 246.288 66.9467H261.988L262.911 74.2427C264.081 71.6573 266.02 69.5787 268.731 68.0093C271.439 66.436 274.516 65.6493 277.965 65.6493C281.967 65.6493 285.539 66.7013 288.679 68.7907" fill="#1A1A1A"/>
<path d="M320.635 84.3094H335.596C334.979 79.5041 332.58 77.1041 328.393 77.1041C324.267 77.1041 321.681 79.5041 320.635 84.3094ZM349.912 92.0654H320.449C320.756 95.6987 321.805 98.3134 323.589 99.9188C325.373 101.516 327.989 102.317 331.44 102.317C333.78 102.317 336.117 101.932 338.46 101.165C340.797 100.393 342.921 99.3308 344.831 97.9774L349.08 109.063C346.74 110.785 343.909 112.139 340.585 113.125C337.259 114.108 333.932 114.599 330.608 114.599C325.252 114.599 320.601 113.617 316.663 111.647C312.723 109.679 309.703 106.857 307.611 103.195C305.517 99.5321 304.473 95.2068 304.473 90.2161C304.473 85.4774 305.472 81.2481 307.475 77.5201C309.473 73.7974 312.244 70.8854 315.787 68.7908C319.327 66.7014 323.372 65.6494 327.929 65.6494C332.364 65.6494 336.243 66.6374 339.567 68.6054C342.892 70.5801 345.447 73.3961 347.233 77.0588C349.017 80.7214 349.912 84.9854 349.912 89.8508V92.0654" fill="#1A1A1A"/>
<path d="M401.495 70.6853C404.233 74.0413 405.603 79.108 405.603 85.8773V113.863H388.888V86.6187C388.888 83.7227 388.393 81.644 387.409 80.38C386.421 79.1227 384.884 78.492 382.792 78.492C380.267 78.492 378.235 79.3387 376.697 81.028C375.155 82.7253 374.387 84.956 374.387 87.7267V113.863H357.671V80.4307C357.671 75.38 357.423 70.8853 356.931 66.9467H372.633L373.463 73.8707C375.249 71.2267 377.467 69.192 380.113 67.7733C382.759 66.3613 385.747 65.6493 389.071 65.6493C394.612 65.6493 398.753 67.328 401.495 70.6853Z" fill="#1A1A1A"/>
<path d="M126.439 153.763C132.964 153.763 136.228 151.459 136.228 146.839C136.228 144.499 135.443 142.731 133.872 141.528C132.303 140.329 129.824 139.729 126.439 139.729H114.803V153.763H126.439ZM97.4374 126.611H128.747C136.257 126.611 142.079 128.415 146.201 132.017C150.328 135.62 152.389 140.5 152.389 146.653C152.389 152.752 150.299 157.617 146.111 161.245C141.921 164.883 136.136 166.697 128.747 166.697H114.803V192.371H97.4374V126.611Z" fill="#1A1A1A"/>
<path d="M193.768 145.361V160.597C191.12 159.371 188.564 158.755 186.104 158.755C179.085 158.755 175.575 162.112 175.575 168.82V192.371H158.859V158.94C158.859 153.889 158.611 149.395 158.12 145.456H173.82L174.835 153.303C175.943 150.412 177.729 148.192 180.192 146.653C182.653 145.115 185.424 144.344 188.504 144.344C190.781 144.344 192.535 144.684 193.768 145.361" fill="#1A1A1A"/>
<path d="M211.684 162.817H226.645C226.031 158.013 223.629 155.612 219.443 155.612C215.316 155.612 212.731 158.013 211.684 162.817V162.817ZM240.961 170.575H211.499C211.807 174.207 212.855 176.823 214.641 178.425C216.424 180.025 219.039 180.827 222.489 180.827C224.829 180.827 227.167 180.44 229.509 179.675C231.847 178.903 233.972 177.84 235.88 176.487L240.129 187.571C237.789 189.295 234.959 190.647 231.635 191.635C228.309 192.617 224.981 193.108 221.657 193.108C216.301 193.108 211.651 192.125 207.712 190.156C203.772 188.188 200.753 185.365 198.661 181.703C196.567 178.04 195.523 173.716 195.523 168.725C195.523 163.985 196.521 159.756 198.524 156.029C200.523 152.307 203.293 149.395 206.836 147.3C210.376 145.211 214.421 144.157 218.979 144.157C223.415 144.157 227.292 145.144 230.617 147.115C233.941 149.088 236.497 151.905 238.283 155.568C240.067 159.231 240.961 163.495 240.961 168.36V170.575" fill="#1A1A1A"/>
<path d="M245.485 187.476L249.736 176.116C252.26 177.84 255.121 179.179 258.325 180.136C261.525 181.088 264.664 181.563 267.747 181.563C269.652 181.563 271.131 181.288 272.179 180.736C273.225 180.18 273.749 179.409 273.749 178.425C273.749 177.564 273.364 176.872 272.593 176.347C271.821 175.825 270.363 175.345 268.207 174.915L260.633 173.16C255.831 172.179 252.368 170.62 250.244 168.495C248.119 166.371 247.057 163.435 247.057 159.676C247.057 156.66 247.949 153.984 249.736 151.64C251.521 149.305 253.999 147.471 257.171 146.147C260.34 144.824 263.988 144.157 268.115 144.157C271.499 144.157 274.824 144.653 278.088 145.637C281.353 146.624 284.4 148.012 287.233 149.796L282.799 160.879C280.336 159.275 277.812 158.048 275.227 157.181C272.64 156.319 270.205 155.888 267.928 155.888C266.083 155.888 264.635 156.184 263.589 156.765C262.543 157.352 262.019 158.199 262.019 159.307C262.019 159.987 262.327 160.524 262.943 160.924C263.557 161.324 264.727 161.741 266.453 162.172L274.303 163.925C279.291 165.097 282.876 166.807 285.063 169.051C287.248 171.301 288.34 174.363 288.34 178.241C288.34 182.861 286.509 186.493 282.847 189.14C279.181 191.785 274.117 193.108 267.653 193.108C258.293 193.108 250.905 191.233 245.485 187.476" fill="#1A1A1A"/>
<path d="M292.311 187.476L296.56 176.116C299.087 177.84 301.947 179.179 305.151 180.136C308.351 181.088 311.489 181.563 314.572 181.563C316.477 181.563 317.956 181.288 319.003 180.736C320.051 180.18 320.575 179.409 320.575 178.425C320.575 177.564 320.188 176.872 319.42 176.347C318.647 175.825 317.187 175.345 315.032 174.915L307.459 173.16C302.656 172.179 299.193 170.62 297.069 168.495C294.944 166.371 293.881 163.435 293.881 159.676C293.881 156.66 294.773 153.984 296.56 151.64C298.347 149.305 300.824 147.471 303.996 146.147C307.165 144.824 310.812 144.157 314.939 144.157C318.324 144.157 321.648 144.653 324.913 145.637C328.177 146.624 331.224 148.012 334.057 149.796L329.624 160.879C327.16 159.275 324.639 158.048 322.052 157.181C319.464 156.319 317.031 155.888 314.753 155.888C312.908 155.888 311.46 156.184 310.415 156.765C309.367 157.352 308.844 158.199 308.844 159.307C308.844 159.987 309.152 160.524 309.768 160.924C310.381 161.324 311.552 161.741 313.279 162.172L321.128 163.925C326.116 165.097 329.7 166.807 331.888 169.051C334.073 171.301 335.165 174.363 335.165 178.241C335.165 182.861 333.333 186.493 329.671 189.14C326.005 191.785 320.943 193.108 314.477 193.108C305.119 193.108 297.731 191.233 292.311 187.476Z" fill="#1A1A1A"/>
</svg>
