<svg width="548" height="211" viewBox="0 0 548 211" fill="none" xmlns="http://www.w3.org/2000/svg">
<rect width="548" height="211" fill="white"/>
<path d="M10 163H247" stroke="#BBBBBB"/>
<path d="M10 115H247" stroke="#BBBBBB"/>
<path d="M10 94H247" stroke="#BBBBBB"/>
<path d="M268 163H524" stroke="#BBBBBB"/>
<path d="M268 115H524" stroke="#BBBBBB"/>
<path d="M268 89H524" stroke="#BBBBBB"/>
<path d="M389.96 62.6V71H390.98V67.64H392L394.34 71H395.6L393.092 67.544C394.28 67.256 395.096 66.38 395.096 65.12C395.096 63.572 393.86 62.6 392.24 62.6H389.96ZM392.24 63.5C393.32 63.5 394.076 64.088 394.076 65.12C394.076 66.152 393.32 66.74 392.24 66.74H390.98V63.5H392.24ZM396.135 68.24C396.135 69.908 397.371 71.12 398.991 71.12C400.611 71.12 401.847 69.908 401.847 68.24C401.847 66.572 400.611 65.36 398.991 65.36C397.371 65.36 396.135 66.572 396.135 68.24ZM397.107 68.24C397.107 67.088 397.911 66.26 398.991 66.26C400.071 66.26 400.875 67.088 400.875 68.24C400.875 69.392 400.071 70.22 398.991 70.22C397.911 70.22 397.107 69.392 397.107 68.24ZM404.126 68.84V65.48H403.166V68.96C403.166 70.388 403.922 71.12 405.062 71.12C405.782 71.12 406.37 70.736 406.706 70.124V71H407.666V65.48H406.706V68.84C406.706 69.632 406.142 70.22 405.302 70.22C404.522 70.22 404.126 69.752 404.126 68.84ZM413.01 67.64V71H413.97V67.52C413.97 66.092 413.214 65.36 412.074 65.36C411.354 65.36 410.766 65.744 410.43 66.356V65.48H409.47V71H410.43V67.64C410.43 66.848 410.994 66.26 411.834 66.26C412.614 66.26 413.01 66.728 413.01 67.64ZM415.295 68.24C415.295 70.028 416.531 71.12 418.031 71.12C418.847 71.12 419.507 70.736 419.915 70.052V71H420.875V61.64H419.915V66.428C419.507 65.744 418.847 65.36 418.031 65.36C416.531 65.36 415.295 66.452 415.295 68.24ZM416.267 68.24C416.267 66.968 417.131 66.26 418.151 66.26C418.991 66.26 419.915 66.968 419.915 68.24C419.915 69.512 418.991 70.22 418.151 70.22C417.131 70.22 416.267 69.512 416.267 68.24ZM427.383 69.716L426.603 69.224C426.231 69.824 425.679 70.22 424.875 70.22C423.867 70.22 423.207 69.596 423.123 68.48H427.467C427.479 68.384 427.479 68.288 427.479 68.192C427.479 66.452 426.435 65.36 424.875 65.36C423.447 65.36 422.415 66.296 422.187 67.652C422.151 67.844 422.139 68.036 422.139 68.24C422.139 69.908 423.255 71.12 424.755 71.12C426.183 71.12 426.831 70.556 427.383 69.716ZM424.875 66.2C425.835 66.2 426.339 66.8 426.435 67.664H423.147C423.255 66.752 423.987 66.2 424.875 66.2ZM428.315 68.24C428.315 70.028 429.551 71.12 431.051 71.12C431.867 71.12 432.527 70.736 432.935 70.052V71H433.895V61.64H432.935V66.428C432.527 65.744 431.867 65.36 431.051 65.36C429.551 65.36 428.315 66.452 428.315 68.24ZM429.287 68.24C429.287 66.968 430.151 66.26 431.171 66.26C432.011 66.26 432.935 66.968 432.935 68.24C432.935 69.512 432.011 70.22 431.171 70.22C430.151 70.22 429.287 69.512 429.287 68.24ZM442.776 67.64V71H443.736V67.52C443.736 66.092 442.98 65.36 441.84 65.36C441.12 65.36 440.532 65.744 440.196 66.356V61.64H439.236V71H440.196V67.64C440.196 66.848 440.76 66.26 441.6 66.26C442.38 66.26 442.776 66.728 442.776 67.64ZM445.061 68.24C445.061 69.908 446.297 71.12 447.917 71.12C449.537 71.12 450.773 69.908 450.773 68.24C450.773 66.572 449.537 65.36 447.917 65.36C446.297 65.36 445.061 66.572 445.061 68.24ZM446.033 68.24C446.033 67.088 446.837 66.26 447.917 66.26C448.997 66.26 449.801 67.088 449.801 68.24C449.801 69.392 448.997 70.22 447.917 70.22C446.837 70.22 446.033 69.392 446.033 68.24ZM451.611 68.24C451.611 69.908 452.847 71.12 454.467 71.12C456.087 71.12 457.323 69.908 457.323 68.24C457.323 66.572 456.087 65.36 454.467 65.36C452.847 65.36 451.611 66.572 451.611 68.24ZM452.583 68.24C452.583 67.088 453.387 66.26 454.467 66.26C455.547 66.26 456.351 67.088 456.351 68.24C456.351 69.392 455.547 70.22 454.467 70.22C453.387 70.22 452.583 69.392 452.583 68.24ZM461.582 65.48L459.542 67.412V61.64H458.582V71H459.542V68.204L461.822 71H463.022L460.382 67.76L462.782 65.48H461.582ZM464.083 69.056L463.327 69.524C463.735 70.424 464.587 71.12 465.607 71.12C466.675 71.12 467.503 70.628 467.503 69.44C467.503 68.516 466.759 68.084 465.979 67.76C465.367 67.508 464.611 67.34 464.611 66.812C464.611 66.38 464.995 66.236 465.475 66.236C465.919 66.236 466.423 66.56 466.687 66.932L467.455 66.44C467.119 65.828 466.339 65.36 465.463 65.36C464.575 65.36 463.675 65.816 463.675 66.848C463.675 67.892 464.503 68.168 465.259 68.468C465.895 68.72 466.507 68.972 466.507 69.548C466.507 70.016 466.123 70.22 465.607 70.22C465.079 70.22 464.467 69.728 464.083 69.056ZM471.885 68.24C471.885 69.908 473.121 71.12 474.741 71.12C476.361 71.12 477.597 69.908 477.597 68.24C477.597 66.572 476.361 65.36 474.741 65.36C473.121 65.36 471.885 66.572 471.885 68.24ZM472.857 68.24C472.857 67.088 473.661 66.26 474.741 66.26C475.821 66.26 476.625 67.088 476.625 68.24C476.625 69.392 475.821 70.22 474.741 70.22C473.661 70.22 472.857 69.392 472.857 68.24ZM482.456 67.64V71H483.416V67.52C483.416 66.092 482.66 65.36 481.52 65.36C480.8 65.36 480.212 65.744 479.876 66.356V65.48H478.916V71H479.876V67.64C479.876 66.848 480.44 66.26 481.28 66.26C482.06 66.26 482.456 66.728 482.456 67.64ZM488.878 62.6V71H489.898V67.64H490.918L493.258 71H494.518L492.01 67.544C493.198 67.256 494.014 66.38 494.014 65.12C494.014 63.572 492.778 62.6 491.158 62.6H488.878ZM491.158 63.5C492.238 63.5 492.994 64.088 492.994 65.12C492.994 66.152 492.238 66.74 491.158 66.74H489.898V63.5H491.158ZM499.562 66.776C499.826 66.584 500.414 66.2 501.206 66.2C501.806 66.2 502.37 66.488 502.37 67.04V67.964C502.058 67.76 501.59 67.568 500.942 67.568C499.49 67.568 498.59 68.252 498.59 69.416C498.59 70.544 499.442 71.12 500.486 71.12C501.314 71.12 502.034 70.796 502.37 70.208V71H503.33V67.04C503.33 65.972 502.466 65.36 501.206 65.36C500.21 65.36 499.502 65.744 499.094 66.044L499.562 66.776ZM499.562 69.38C499.562 68.708 500.018 68.3 500.99 68.3C501.518 68.3 501.95 68.408 502.37 68.624V68.84C502.37 69.872 501.686 70.268 500.726 70.268C500.078 70.268 499.562 69.968 499.562 69.38ZM508.495 67.64V71H509.455V67.52C509.455 66.092 508.699 65.36 507.559 65.36C506.839 65.36 506.251 65.744 505.915 66.356V65.48H504.955V71H505.915V67.64C505.915 66.848 506.479 66.26 507.319 66.26C508.099 66.26 508.495 66.728 508.495 67.64ZM510.779 68.24C510.779 70.028 512.015 71.12 513.515 71.12C514.331 71.12 514.991 70.736 515.399 70.052V71H516.359V61.64H515.399V66.428C514.991 65.744 514.331 65.36 513.515 65.36C512.015 65.36 510.779 66.452 510.779 68.24ZM511.751 68.24C511.751 66.968 512.615 66.26 513.635 66.26C514.475 66.26 515.399 66.968 515.399 68.24C515.399 69.512 514.475 70.22 513.635 70.22C512.615 70.22 511.751 69.512 511.751 68.24ZM521.761 62.6V71H522.781V62.6H521.761Z" fill="black"/>
<path d="M298.96 62.6V71H299.98V66.92H303.16V65.96H299.98V63.56H303.28V62.6H298.96ZM304.9 61.64V71H305.86V61.64H304.9ZM308.098 66.776C308.362 66.584 308.95 66.2 309.742 66.2C310.342 66.2 310.906 66.488 310.906 67.04V67.964C310.594 67.76 310.126 67.568 309.478 67.568C308.026 67.568 307.126 68.252 307.126 69.416C307.126 70.544 307.978 71.12 309.022 71.12C309.85 71.12 310.57 70.796 310.906 70.208V71H311.866V67.04C311.866 65.972 311.002 65.36 309.742 65.36C308.746 65.36 308.038 65.744 307.63 66.044L308.098 66.776ZM308.098 69.38C308.098 68.708 308.554 68.3 309.526 68.3C310.054 68.3 310.486 68.408 310.906 68.624V68.84C310.906 69.872 310.222 70.268 309.262 70.268C308.614 70.268 308.098 69.968 308.098 69.38ZM312.65 65.48V66.38H313.55V71H314.51V66.38H315.41V65.48H314.51V63.56H313.55V65.48H312.65ZM323.51 67.64V71H324.47V67.52C324.47 66.092 323.714 65.36 322.574 65.36C321.854 65.36 321.266 65.744 320.93 66.356V61.64H319.97V71H320.93V67.64C320.93 66.848 321.494 66.26 322.334 66.26C323.114 66.26 323.51 66.728 323.51 67.64ZM325.795 68.24C325.795 69.908 327.031 71.12 328.651 71.12C330.271 71.12 331.507 69.908 331.507 68.24C331.507 66.572 330.271 65.36 328.651 65.36C327.031 65.36 325.795 66.572 325.795 68.24ZM326.767 68.24C326.767 67.088 327.571 66.26 328.651 66.26C329.731 66.26 330.535 67.088 330.535 68.24C330.535 69.392 329.731 70.22 328.651 70.22C327.571 70.22 326.767 69.392 326.767 68.24ZM332.346 68.24C332.346 69.908 333.582 71.12 335.202 71.12C336.822 71.12 338.058 69.908 338.058 68.24C338.058 66.572 336.822 65.36 335.202 65.36C333.582 65.36 332.346 66.572 332.346 68.24ZM333.318 68.24C333.318 67.088 334.122 66.26 335.202 66.26C336.282 66.26 337.086 67.088 337.086 68.24C337.086 69.392 336.282 70.22 335.202 70.22C334.122 70.22 333.318 69.392 333.318 68.24ZM342.317 65.48L340.277 67.412V61.64H339.317V71H340.277V68.204L342.557 71H343.757L341.117 67.76L343.517 65.48H342.317ZM347.779 68.24C347.779 69.908 349.015 71.12 350.635 71.12C352.255 71.12 353.491 69.908 353.491 68.24C353.491 66.572 352.255 65.36 350.635 65.36C349.015 65.36 347.779 66.572 347.779 68.24ZM348.751 68.24C348.751 67.088 349.555 66.26 350.635 66.26C351.715 66.26 352.519 67.088 352.519 68.24C352.519 69.392 351.715 70.22 350.635 70.22C349.555 70.22 348.751 69.392 348.751 68.24ZM358.35 67.64V71H359.31V67.52C359.31 66.092 358.554 65.36 357.414 65.36C356.694 65.36 356.106 65.744 355.77 66.356V65.48H354.81V71H355.77V67.64C355.77 66.848 356.334 66.26 357.174 66.26C357.954 66.26 358.35 66.728 358.35 67.64ZM365.157 68.288L364.293 68.804C364.821 70.184 365.913 71.12 367.293 71.12C368.841 71.12 369.849 70.148 369.849 68.72C369.849 67.196 368.601 66.572 367.725 66.248C366.705 65.864 365.781 65.468 365.781 64.652C365.781 63.92 366.201 63.452 367.041 63.452C367.965 63.452 368.553 64.136 368.913 64.832L369.741 64.28C369.297 63.308 368.505 62.48 367.149 62.48C365.661 62.48 364.713 63.368 364.713 64.64C364.713 66.188 365.985 66.644 366.825 66.944C367.785 67.292 368.793 67.724 368.793 68.804C368.793 69.644 368.313 70.16 367.353 70.16C366.309 70.16 365.661 69.44 365.157 68.288Z" fill="black"/>
<path d="M433 115L479 74" stroke="#A4A4A4"/>
<path d="M345 104L352 74" stroke="#A4A4A4"/>
<path d="M501 93L510 76" stroke="#A4A4A4"/>
<path d="M39.96 60.6V69H40.98V64.92H45.6V69H46.62V60.6H45.6V63.96H40.98V60.6H39.96ZM48.9101 64.776C49.1741 64.584 49.7621 64.2 50.5541 64.2C51.1541 64.2 51.7181 64.488 51.7181 65.04V65.964C51.4061 65.76 50.9381 65.568 50.2901 65.568C48.8381 65.568 47.9381 66.252 47.9381 67.416C47.9381 68.544 48.7901 69.12 49.8341 69.12C50.6621 69.12 51.3821 68.796 51.7181 68.208V69H52.6781V65.04C52.6781 63.972 51.8141 63.36 50.5541 63.36C49.5581 63.36 48.8501 63.744 48.4421 64.044L48.9101 64.776ZM48.9101 67.38C48.9101 66.708 49.3661 66.3 50.3381 66.3C50.8661 66.3 51.2981 66.408 51.7181 66.624V66.84C51.7181 67.872 51.0341 68.268 50.0741 68.268C49.4261 68.268 48.9101 67.968 48.9101 67.38ZM57.8423 65.64V69H58.8023V65.52C58.8023 64.092 58.0463 63.36 56.9063 63.36C56.1863 63.36 55.5983 63.744 55.2623 64.356V63.48H54.3023V69H55.2623V65.64C55.2623 64.848 55.8263 64.26 56.6663 64.26C57.4463 64.26 57.8423 64.728 57.8423 65.64ZM60.127 66.24C60.127 68.028 61.363 69.12 62.863 69.12C63.679 69.12 64.339 68.736 64.747 68.052V69H65.707V59.64H64.747V64.428C64.339 63.744 63.679 63.36 62.863 63.36C61.363 63.36 60.127 64.452 60.127 66.24ZM61.099 66.24C61.099 64.968 61.963 64.26 62.983 64.26C63.823 64.26 64.747 64.968 64.747 66.24C64.747 67.512 63.823 68.22 62.983 68.22C61.963 68.22 61.099 67.512 61.099 66.24ZM74.3484 65.64V69H75.3084V65.64C75.3084 64.848 75.7524 64.26 76.5924 64.26C77.3724 64.26 77.6484 64.728 77.6484 65.64V69H78.6084V65.52C78.6084 64.092 77.9724 63.36 76.8324 63.36C76.1004 63.36 75.4764 63.756 75.1284 64.392C74.8644 63.708 74.3124 63.36 73.5324 63.36C72.8484 63.36 72.3204 63.72 72.0084 64.284V63.48H71.0484V69H72.0084V65.64C72.0084 64.848 72.4524 64.26 73.2924 64.26C74.0724 64.26 74.3484 64.728 74.3484 65.64ZM80.8437 64.776C81.1077 64.584 81.6957 64.2 82.4877 64.2C83.0877 64.2 83.6517 64.488 83.6517 65.04V65.964C83.3397 65.76 82.8717 65.568 82.2237 65.568C80.7717 65.568 79.8717 66.252 79.8717 67.416C79.8717 68.544 80.7237 69.12 81.7677 69.12C82.5957 69.12 83.3157 68.796 83.6517 68.208V69H84.6117V65.04C84.6117 63.972 83.7477 63.36 82.4877 63.36C81.4917 63.36 80.7837 63.744 80.3757 64.044L80.8437 64.776ZM80.8437 67.38C80.8437 66.708 81.2997 66.3 82.2717 66.3C82.7997 66.3 83.2317 66.408 83.6517 66.624V66.84C83.6517 67.872 82.9677 68.268 82.0077 68.268C81.3597 68.268 80.8437 67.968 80.8437 67.38ZM85.7559 66.24C85.7559 68.028 86.9919 69.12 88.4919 69.12C89.3079 69.12 89.9679 68.736 90.3759 68.052V69H91.3359V59.64H90.3759V64.428C89.9679 63.744 89.3079 63.36 88.4919 63.36C86.9919 63.36 85.7559 64.452 85.7559 66.24ZM86.7279 66.24C86.7279 64.968 87.5919 64.26 88.6119 64.26C89.4519 64.26 90.3759 64.968 90.3759 66.24C90.3759 67.512 89.4519 68.22 88.6119 68.22C87.5919 68.22 86.7279 67.512 86.7279 66.24ZM97.8437 67.716L97.0637 67.224C96.6917 67.824 96.1397 68.22 95.3357 68.22C94.3277 68.22 93.6677 67.596 93.5837 66.48H97.9277C97.9397 66.384 97.9397 66.288 97.9397 66.192C97.9397 64.452 96.8957 63.36 95.3357 63.36C93.9077 63.36 92.8757 64.296 92.6477 65.652C92.6117 65.844 92.5997 66.036 92.5997 66.24C92.5997 67.908 93.7157 69.12 95.2157 69.12C96.6437 69.12 97.2917 68.556 97.8437 67.716ZM95.3357 64.2C96.2957 64.2 96.7997 64.8 96.8957 65.664H93.6077C93.7157 64.752 94.4477 64.2 95.3357 64.2ZM102.853 59.64V69H103.813V59.64H102.853ZM105.139 66.24C105.139 67.908 106.375 69.12 107.995 69.12C109.615 69.12 110.851 67.908 110.851 66.24C110.851 64.572 109.615 63.36 107.995 63.36C106.375 63.36 105.139 64.572 105.139 66.24ZM106.111 66.24C106.111 65.088 106.915 64.26 107.995 64.26C109.075 64.26 109.879 65.088 109.879 66.24C109.879 67.392 109.075 68.22 107.995 68.22C106.915 68.22 106.111 67.392 106.111 66.24ZM111.69 66.24C111.69 67.908 112.926 69.12 114.546 69.12C116.166 69.12 117.402 67.908 117.402 66.24C117.402 64.572 116.166 63.36 114.546 63.36C112.926 63.36 111.69 64.572 111.69 66.24ZM112.662 66.24C112.662 65.088 113.466 64.26 114.546 64.26C115.626 64.26 116.43 65.088 116.43 66.24C116.43 67.392 115.626 68.22 114.546 68.22C113.466 68.22 112.662 67.392 112.662 66.24ZM121.66 63.48L119.62 65.412V59.64H118.66V69H119.62V66.204L121.9 69H123.1L120.46 65.76L122.86 63.48H121.66ZM124.005 61.2C124.005 61.56 124.305 61.86 124.665 61.86C125.025 61.86 125.325 61.56 125.325 61.2C125.325 60.84 125.025 60.54 124.665 60.54C124.305 60.54 124.005 60.84 124.005 61.2ZM124.185 63.48V69H125.145V63.48H124.185ZM130.663 65.64V69H131.623V65.52C131.623 64.092 130.867 63.36 129.727 63.36C129.007 63.36 128.419 63.744 128.083 64.356V63.48H127.123V69H128.083V65.64C128.083 64.848 128.647 64.26 129.487 64.26C130.267 64.26 130.663 64.728 130.663 65.64ZM133.055 69.36C133.055 70.788 134.171 71.76 135.791 71.76C137.171 71.76 138.527 70.788 138.527 68.88V63.48H137.567V64.428C137.159 63.744 136.499 63.36 135.683 63.36C134.183 63.36 132.947 64.452 132.947 66.24C132.947 68.028 134.183 69.12 135.683 69.12C136.499 69.12 137.159 68.736 137.567 68.052V68.88C137.567 70.272 136.631 70.86 135.791 70.86C134.711 70.86 134.027 70.152 134.027 69.36H133.055ZM133.919 66.24C133.919 64.968 134.783 64.26 135.803 64.26C136.643 64.26 137.567 64.968 137.567 66.24C137.567 67.512 136.643 68.22 135.803 68.22C134.783 68.22 133.919 67.512 133.919 66.24ZM144.025 67.056L143.269 67.524C143.677 68.424 144.529 69.12 145.549 69.12C146.617 69.12 147.445 68.628 147.445 67.44C147.445 66.516 146.701 66.084 145.921 65.76C145.309 65.508 144.553 65.34 144.553 64.812C144.553 64.38 144.937 64.236 145.417 64.236C145.861 64.236 146.365 64.56 146.629 64.932L147.397 64.44C147.061 63.828 146.281 63.36 145.405 63.36C144.517 63.36 143.617 63.816 143.617 64.848C143.617 65.892 144.445 66.168 145.201 66.468C145.837 66.72 146.449 66.972 146.449 67.548C146.449 68.016 146.065 68.22 145.549 68.22C145.021 68.22 144.409 67.728 144.025 67.056ZM152.249 65.64V69H153.209V65.52C153.209 64.092 152.453 63.36 151.313 63.36C150.593 63.36 150.005 63.744 149.669 64.356V59.64H148.709V69H149.669V65.64C149.669 64.848 150.233 64.26 151.073 64.26C151.853 64.26 152.249 64.728 152.249 65.64ZM155.445 64.776C155.709 64.584 156.297 64.2 157.089 64.2C157.689 64.2 158.253 64.488 158.253 65.04V65.964C157.941 65.76 157.473 65.568 156.825 65.568C155.373 65.568 154.473 66.252 154.473 67.416C154.473 68.544 155.325 69.12 156.369 69.12C157.197 69.12 157.917 68.796 158.253 68.208V69H159.213V65.04C159.213 63.972 158.349 63.36 157.089 63.36C156.093 63.36 155.385 63.744 154.977 64.044L155.445 64.776ZM155.445 67.38C155.445 66.708 155.901 66.3 156.873 66.3C157.401 66.3 157.833 66.408 158.253 66.624V66.84C158.253 67.872 157.569 68.268 156.609 68.268C155.961 68.268 155.445 67.968 155.445 67.38ZM161.738 71.64V68.052C162.146 68.736 162.806 69.12 163.622 69.12C165.122 69.12 166.358 68.028 166.358 66.24C166.358 64.452 165.122 63.36 163.622 63.36C162.806 63.36 162.146 63.744 161.738 64.428V63.48H160.778V71.64H161.738ZM165.386 66.24C165.386 67.512 164.522 68.22 163.502 68.22C162.662 68.22 161.738 67.512 161.738 66.24C161.738 64.968 162.662 64.26 163.502 64.26C164.522 64.26 165.386 64.968 165.386 66.24ZM172.445 67.716L171.665 67.224C171.293 67.824 170.741 68.22 169.937 68.22C168.929 68.22 168.269 67.596 168.185 66.48H172.529C172.541 66.384 172.541 66.288 172.541 66.192C172.541 64.452 171.497 63.36 169.937 63.36C168.509 63.36 167.477 64.296 167.249 65.652C167.213 65.844 167.201 66.036 167.201 66.24C167.201 67.908 168.317 69.12 169.817 69.12C171.245 69.12 171.893 68.556 172.445 67.716ZM169.937 64.2C170.897 64.2 171.401 64.8 171.497 65.664H168.209C168.317 64.752 169.049 64.2 169.937 64.2ZM174.013 67.056L173.257 67.524C173.665 68.424 174.517 69.12 175.537 69.12C176.605 69.12 177.433 68.628 177.433 67.44C177.433 66.516 176.689 66.084 175.909 65.76C175.297 65.508 174.541 65.34 174.541 64.812C174.541 64.38 174.925 64.236 175.405 64.236C175.849 64.236 176.353 64.56 176.617 64.932L177.385 64.44C177.049 63.828 176.269 63.36 175.393 63.36C174.505 63.36 173.605 63.816 173.605 64.848C173.605 65.892 174.433 66.168 175.189 66.468C175.825 66.72 176.437 66.972 176.437 67.548C176.437 68.016 176.053 68.22 175.537 68.22C175.009 68.22 174.397 67.728 174.013 67.056ZM185.835 65.64V69H186.795V65.52C186.795 64.092 186.039 63.36 184.899 63.36C184.179 63.36 183.591 63.744 183.255 64.356V59.64H182.295V69H183.255V65.64C183.255 64.848 183.819 64.26 184.659 64.26C185.439 64.26 185.835 64.728 185.835 65.64ZM188.119 66.24C188.119 67.908 189.355 69.12 190.975 69.12C192.595 69.12 193.831 67.908 193.831 66.24C193.831 64.572 192.595 63.36 190.975 63.36C189.355 63.36 188.119 64.572 188.119 66.24ZM189.091 66.24C189.091 65.088 189.895 64.26 190.975 64.26C192.055 64.26 192.859 65.088 192.859 66.24C192.859 67.392 192.055 68.22 190.975 68.22C189.895 68.22 189.091 67.392 189.091 66.24ZM194.67 66.24C194.67 67.908 195.906 69.12 197.526 69.12C199.146 69.12 200.382 67.908 200.382 66.24C200.382 64.572 199.146 63.36 197.526 63.36C195.906 63.36 194.67 64.572 194.67 66.24ZM195.642 66.24C195.642 65.088 196.446 64.26 197.526 64.26C198.606 64.26 199.41 65.088 199.41 66.24C199.41 67.392 198.606 68.22 197.526 68.22C196.446 68.22 195.642 67.392 195.642 66.24ZM204.641 63.48L202.601 65.412V59.64H201.641V69H202.601V66.204L204.881 69H206.081L203.441 65.76L205.841 63.48H204.641ZM207.142 67.056L206.386 67.524C206.794 68.424 207.646 69.12 208.666 69.12C209.734 69.12 210.562 68.628 210.562 67.44C210.562 66.516 209.818 66.084 209.038 65.76C208.426 65.508 207.67 65.34 207.67 64.812C207.67 64.38 208.054 64.236 208.534 64.236C208.978 64.236 209.482 64.56 209.746 64.932L210.514 64.44C210.178 63.828 209.398 63.36 208.522 63.36C207.634 63.36 206.734 63.816 206.734 64.848C206.734 65.892 207.562 66.168 208.318 66.468C208.954 66.72 209.566 66.972 209.566 67.548C209.566 68.016 209.182 68.22 208.666 68.22C208.138 68.22 207.526 67.728 207.142 67.056Z" fill="black"/>
<path d="M135 110L116 76" stroke="#A4A4A4"/>
<path d="M190 93L116 76" stroke="#A4A4A4"/>
<path d="M56 103L116 76" stroke="#A4A4A4"/>
<path d="M32.2363 163.879C29.3066 163.879 26.7139 163.571 24.458 162.956C22.2314 162.341 20.3564 161.491 18.833 160.407C17.3389 159.294 16.2109 157.961 15.4492 156.408C14.6875 154.826 14.3066 153.098 14.3066 151.223C14.3066 149.406 14.8633 147.941 15.9766 146.828C17.1191 145.715 18.7305 145.158 20.8105 145.158C20.8984 147.033 21.1768 148.835 21.6455 150.563C22.1436 152.292 22.876 153.815 23.8428 155.134C24.8096 156.452 26.04 157.507 27.5342 158.298C29.0283 159.089 30.8301 159.484 32.9395 159.484C36.9824 159.484 40.1318 158.518 42.3877 156.584C44.6729 154.621 45.8154 151.809 45.8154 148.146C45.8154 146.506 45.5811 145.056 45.1123 143.796C44.6436 142.536 43.8672 141.379 42.7832 140.324C41.6992 139.24 40.2637 138.215 38.4766 137.248C36.7188 136.252 34.5215 135.212 31.8848 134.128C29.1016 132.985 26.6699 131.77 24.5898 130.48C22.5098 129.162 20.7812 127.712 19.4043 126.13C18.0273 124.519 17.002 122.731 16.3281 120.769C15.6543 118.806 15.3174 116.594 15.3174 114.133C15.3174 111.555 15.8008 109.255 16.7676 107.233C17.7637 105.212 19.1406 103.513 20.8984 102.136C22.6562 100.729 24.7363 99.6602 27.1387 98.9277C29.541 98.1953 32.1631 97.8291 35.0049 97.8291C37.7002 97.8291 40.0879 98.1074 42.168 98.6641C44.248 99.2207 46.0059 99.9678 47.4414 100.905C48.877 101.843 49.9609 102.927 50.6934 104.157C51.4551 105.358 51.8359 106.618 51.8359 107.937C51.8359 109.87 51.1914 111.335 49.9023 112.331C48.6426 113.298 46.9287 113.781 44.7607 113.781C44.7607 112.375 44.585 110.998 44.2334 109.65C43.9111 108.273 43.3545 107.058 42.5635 106.003C41.7725 104.919 40.7324 104.04 39.4434 103.366C38.1543 102.692 36.5576 102.355 34.6533 102.355C32.9248 102.355 31.3721 102.604 29.9951 103.103C28.6475 103.571 27.5049 104.26 26.5674 105.168C25.6299 106.047 24.9121 107.116 24.4141 108.376C23.916 109.636 23.667 111.042 23.667 112.595C23.667 114.382 23.9014 115.964 24.3701 117.341C24.8389 118.688 25.6152 119.919 26.6992 121.032C27.8125 122.116 29.2627 123.156 31.0498 124.152C32.8369 125.119 35.0342 126.13 37.6416 127.185C40.2783 128.269 42.6221 129.411 44.6729 130.612C46.7529 131.813 48.5107 133.161 49.9463 134.655C51.3818 136.12 52.4805 137.775 53.2422 139.621C54.0039 141.438 54.3848 143.503 54.3848 145.817C54.3848 148.659 53.8574 151.208 52.8027 153.464C51.7773 155.69 50.2979 157.58 48.3643 159.133C46.4307 160.686 44.1016 161.872 41.377 162.692C38.6523 163.483 35.6055 163.879 32.2363 163.879ZM80.5463 118.703C77.2064 118.703 74.6283 120.065 72.8119 122.79C71.0248 125.485 69.9701 129.44 69.6479 134.655H90.3461C90.3461 132.282 90.1703 130.114 89.8187 128.151C89.4672 126.188 88.9105 124.504 88.1488 123.098C87.3871 121.691 86.3764 120.607 85.1166 119.846C83.8861 119.084 82.3627 118.703 80.5463 118.703ZM81.6449 163.879C78.393 163.879 75.4633 163.337 72.8559 162.253C70.2777 161.14 68.0951 159.528 66.308 157.419C64.5209 155.31 63.1439 152.731 62.1771 149.685C61.2396 146.608 60.7709 143.122 60.7709 139.226C60.7709 130.817 62.4994 124.489 65.9564 120.241C69.4135 115.993 74.3354 113.869 80.7221 113.869C83.6225 113.869 86.2299 114.323 88.5443 115.231C90.8588 116.14 92.8217 117.502 94.433 119.318C96.0443 121.105 97.2748 123.347 98.1244 126.042C99.0033 128.708 99.4428 131.813 99.4428 135.358V139.489H69.4721C69.5307 142.771 69.8529 145.598 70.4389 147.971C71.0541 150.314 71.9184 152.248 73.0316 153.771C74.1742 155.295 75.5658 156.423 77.2064 157.155C78.8471 157.858 80.7367 158.21 82.8754 158.21C84.4281 158.21 85.8637 158.034 87.182 157.683C88.5297 157.331 89.7455 156.862 90.8295 156.276C91.9135 155.69 92.8656 155.031 93.6859 154.299C94.5355 153.537 95.224 152.746 95.7514 151.926C96.1615 152.102 96.5424 152.468 96.8939 153.024C97.2748 153.581 97.4652 154.24 97.4652 155.002C97.4652 155.91 97.143 156.892 96.4984 157.946C95.8539 158.972 94.8725 159.924 93.5541 160.803C92.2357 161.682 90.5805 162.414 88.5883 163C86.6254 163.586 84.3109 163.879 81.6449 163.879ZM132.929 163H106.957V159.221H107.221C108.246 159.221 109.199 159.147 110.078 159.001C110.986 158.854 111.762 158.562 112.407 158.122C113.08 157.653 113.608 156.994 113.989 156.145C114.399 155.295 114.604 154.167 114.604 152.761V124.68C114.604 123.361 114.399 122.307 113.989 121.516C113.608 120.695 113.08 120.065 112.407 119.626C111.733 119.187 110.942 118.894 110.034 118.747C109.155 118.601 108.217 118.527 107.221 118.527H106.957V114.748H120.8L122.514 123.669H122.954C123.539 122.321 124.14 121.062 124.755 119.89C125.371 118.688 126.118 117.648 126.996 116.77C127.905 115.861 129.018 115.158 130.336 114.66C131.655 114.133 133.31 113.869 135.302 113.869C138.583 113.869 141.015 114.44 142.597 115.583C144.208 116.726 145.014 118.337 145.014 120.417C145.014 121.354 144.853 122.219 144.531 123.01C144.238 123.801 143.754 124.489 143.08 125.075C142.407 125.632 141.542 126.071 140.488 126.394C139.433 126.687 138.144 126.833 136.621 126.833C136.621 124.343 136.269 122.556 135.566 121.472C134.863 120.358 133.632 119.802 131.874 119.802C130.761 119.802 129.765 120.124 128.886 120.769C128.007 121.384 127.231 122.219 126.557 123.273C125.912 124.299 125.356 125.485 124.887 126.833C124.448 128.181 124.081 129.572 123.788 131.008C123.525 132.414 123.334 133.82 123.217 135.227C123.1 136.633 123.041 137.907 123.041 139.05V153.2C123.041 154.519 123.232 155.588 123.613 156.408C124.023 157.199 124.565 157.8 125.239 158.21C125.912 158.62 126.689 158.898 127.568 159.045C128.476 159.162 129.428 159.221 130.424 159.221H132.929V163ZM149.672 159.221C150.668 159.221 151.606 159.162 152.485 159.045C153.393 158.898 154.184 158.62 154.858 158.21C155.532 157.8 156.059 157.199 156.44 156.408C156.85 155.588 157.055 154.519 157.055 153.2V124.68C157.055 123.361 156.85 122.307 156.44 121.516C156.059 120.695 155.532 120.065 154.858 119.626C154.184 119.187 153.393 118.894 152.485 118.747C151.606 118.601 150.668 118.527 149.672 118.527H149.409V114.748H165.493V152.761C165.493 154.167 165.683 155.295 166.064 156.145C166.474 156.994 167.001 157.653 167.646 158.122C168.32 158.562 169.111 158.854 170.019 159.001C170.927 159.147 171.879 159.221 172.875 159.221H174.062V163H148.486V159.221H149.672ZM155.781 100.158C155.781 99.1035 155.913 98.2246 156.176 97.5215C156.44 96.8184 156.806 96.2471 157.275 95.8076C157.744 95.3682 158.286 95.0605 158.901 94.8848C159.516 94.709 160.19 94.6211 160.922 94.6211C161.625 94.6211 162.285 94.709 162.9 94.8848C163.515 95.0605 164.042 95.3682 164.482 95.8076C164.951 96.2471 165.317 96.8184 165.58 97.5215C165.873 98.2246 166.02 99.1035 166.02 100.158C166.02 101.213 165.873 102.092 165.58 102.795C165.317 103.498 164.951 104.069 164.482 104.509C164.042 104.948 163.515 105.271 162.9 105.476C162.285 105.651 161.625 105.739 160.922 105.739C160.19 105.739 159.516 105.651 158.901 105.476C158.286 105.271 157.744 104.948 157.275 104.509C156.806 104.069 156.44 103.498 156.176 102.795C155.913 102.092 155.781 101.213 155.781 100.158ZM205.483 159.221V163H177.665V159.221H178.852C179.877 159.221 180.829 159.147 181.708 159.001C182.617 158.854 183.393 158.562 184.038 158.122C184.711 157.653 185.239 156.994 185.62 156.145C186.03 155.295 186.235 154.167 186.235 152.761V119.011H178.017V114.748H186.235V110.266C186.235 107.57 186.601 105.197 187.333 103.146C188.066 101.096 189.121 99.3672 190.497 97.9609C191.874 96.5547 193.544 95.5 195.507 94.7969C197.47 94.0645 199.682 93.6982 202.143 93.6982C204.487 93.6982 206.464 93.8594 208.076 94.1816C209.687 94.4746 210.976 94.8994 211.943 95.4561C212.939 96.0127 213.657 96.6719 214.096 97.4336C214.536 98.1953 214.755 99.0449 214.755 99.9824C214.755 100.803 214.565 101.535 214.184 102.18C213.832 102.795 213.32 103.322 212.646 103.762C212.001 104.172 211.225 104.494 210.317 104.729C209.438 104.934 208.456 105.036 207.372 105.036C207.372 104.128 207.27 103.249 207.065 102.399C206.889 101.521 206.567 100.744 206.098 100.07C205.659 99.3965 205.058 98.8545 204.296 98.4443C203.535 98.0342 202.582 97.8291 201.44 97.8291C200.151 97.8291 199.067 98.0781 198.188 98.5762C197.338 99.0742 196.65 99.8213 196.122 100.817C195.595 101.784 195.214 102.985 194.98 104.421C194.775 105.856 194.672 107.526 194.672 109.431V114.748H207.372V119.011H194.672V152.761C194.672 154.167 194.863 155.295 195.244 156.145C195.654 156.994 196.181 157.653 196.826 158.122C197.499 158.562 198.29 158.854 199.199 159.001C200.107 159.147 201.059 159.221 202.055 159.221H205.483Z" fill="#280707"/>
<path d="M301 142.5L302 158.5C306.4 162.6 314.7 164.5 321.7 164.5C339.4 164.5 346.4 154.4 346.4 144.2C346.4 132.4 338.4 126.8 326.7 122.5L323.5 121.3C316.8 118.8 311.2 114.5 311.2 108.5C311.2 101.2 315.6 95.8 324 95.8C332.6 95.8 337.4 100.7 339 110.8H342.1V96.7C338.7 94 331.9 92.3 325.1 92.3C312.9 92.3 302.1 98.4 302.1 111.6C302.1 122.1 310.5 127.6 321 131.3L322.8 132C327.2 133.7 336.7 138.3 336.7 147.2C336.7 155.8 331.2 161 322.3 161C312.9 161 306.7 153.7 304.2 142.5H301ZM351.502 138.9C351.502 154.7 358.302 164.2 374.602 164.2C385.702 164.2 391.402 158 394.102 150.1L391.102 148.5C388.302 154.3 384.502 159.1 376.602 159.1C364.202 159.1 361.702 147.1 361.902 136.7H390.702C392.802 136.7 394.702 136.2 394.702 132.9C394.702 127 392.802 112.8 374.502 112.8C358.902 112.8 351.502 123.9 351.502 138.9ZM362.002 132.9C362.002 128.8 363.502 116.3 373.902 116.3C383.202 116.3 384.302 125.8 384.302 129.7C384.302 131.6 383.702 132.9 380.902 132.9H362.002ZM401.169 163H427.569V160.1C418.669 159.6 418.069 159.4 418.069 154.3V130.9C418.069 123.2 421.469 120.6 423.769 120.6C425.369 120.6 427.069 121.2 429.969 122.8C430.669 123.2 431.469 123.3 431.969 123.3C434.369 123.3 436.569 120.8 436.569 117.7C436.569 115.5 435.169 112.8 431.269 112.8C427.669 112.8 424.669 115 418.069 120.8L416.869 112.8L401.669 115.3V117.8L405.469 118.3C408.069 118.7 408.669 119.2 408.669 122.8V154.3C408.669 159.4 408.169 159.6 401.169 160.1V163ZM446.036 97.6C446.036 101.2 448.536 103.7 452.136 103.7C455.736 103.7 458.236 101.2 458.236 97.6C458.236 94 455.736 91.5 452.136 91.5C448.536 91.5 446.036 94 446.036 97.6ZM440.036 163H464.436V160.1C457.336 159.6 456.936 159.4 456.936 154.3V113.4L456.236 112.8L440.536 115.3V117.8L444.336 118.3C446.936 118.7 447.536 119.2 447.536 122.8V154.3C447.536 159.4 447.236 159.6 440.036 160.1V163ZM468.938 118H476.638V154.3C476.638 159.4 476.338 159.6 469.138 160.1V163H495.538V160.1C486.438 159.7 486.038 159.5 486.038 154.4V118H498.238V114H486.038L485.638 102.8C485.338 93.3 488.838 92.3 490.438 92.3C492.538 92.3 494.738 93.3 497.238 99.1C497.738 100.1 498.438 100.8 499.938 100.8C501.938 100.8 504.838 99.1 504.838 96.1C504.838 92.8 500.638 88.8 492.638 88.8C487.138 88.8 482.438 91.3 479.938 95.1C477.638 98.6 476.638 103.9 476.638 110.5V114H468.938V118Z" fill="#280707"/>
<path d="M301.344 186.288L300.48 186.804C301.008 188.184 302.1 189.12 303.48 189.12C305.028 189.12 306.036 188.148 306.036 186.72C306.036 185.196 304.788 184.572 303.912 184.248C302.892 183.864 301.968 183.468 301.968 182.652C301.968 181.92 302.388 181.452 303.228 181.452C304.152 181.452 304.74 182.136 305.1 182.832L305.928 182.28C305.484 181.308 304.692 180.48 303.336 180.48C301.848 180.48 300.9 181.368 300.9 182.64C300.9 184.188 302.172 184.644 303.012 184.944C303.972 185.292 304.98 185.724 304.98 186.804C304.98 187.644 304.5 188.16 303.54 188.16C302.496 188.16 301.848 187.44 301.344 186.288ZM311.854 183.48H310.774L309.262 187.284L307.714 183.48H306.574L308.686 188.22L307.174 191.64H308.254L311.854 183.48ZM316.059 185.64V189H317.019V185.64C317.019 184.848 317.463 184.26 318.303 184.26C319.083 184.26 319.359 184.728 319.359 185.64V189H320.319V185.52C320.319 184.092 319.683 183.36 318.543 183.36C317.811 183.36 317.187 183.756 316.839 184.392C316.575 183.708 316.023 183.36 315.243 183.36C314.559 183.36 314.031 183.72 313.719 184.284V183.48H312.759V189H313.719V185.64C313.719 184.848 314.163 184.26 315.003 184.26C315.783 184.26 316.059 184.728 316.059 185.64ZM325.423 185.64V189H326.383V185.64C326.383 184.848 326.827 184.26 327.667 184.26C328.447 184.26 328.723 184.728 328.723 185.64V189H329.683V185.52C329.683 184.092 329.047 183.36 327.907 183.36C327.175 183.36 326.551 183.756 326.203 184.392C325.939 183.708 325.387 183.36 324.607 183.36C323.923 183.36 323.395 183.72 323.083 184.284V183.48H322.123V189H323.083V185.64C323.083 184.848 323.527 184.26 324.367 184.26C325.147 184.26 325.423 184.728 325.423 185.64ZM336.25 187.716L335.47 187.224C335.098 187.824 334.546 188.22 333.742 188.22C332.734 188.22 332.074 187.596 331.99 186.48H336.334C336.346 186.384 336.346 186.288 336.346 186.192C336.346 184.452 335.302 183.36 333.742 183.36C332.314 183.36 331.282 184.296 331.054 185.652C331.018 185.844 331.006 186.036 331.006 186.24C331.006 187.908 332.122 189.12 333.622 189.12C335.05 189.12 335.698 188.556 336.25 187.716ZM333.742 184.2C334.702 184.2 335.206 184.8 335.302 185.664H332.014C332.122 184.752 332.854 184.2 333.742 184.2ZM336.822 183.48V184.38H337.722V189H338.682V184.38H339.582V183.48H338.682V181.56H337.722V183.48H336.822ZM343.173 184.536L343.701 183.744C343.413 183.444 343.065 183.36 342.669 183.36C342.249 183.36 341.817 183.648 341.505 184.116V183.48H340.545V189H341.505V185.64C341.505 184.848 341.709 184.26 342.429 184.26C342.741 184.26 342.909 184.344 343.173 184.536ZM344.658 181.2C344.658 181.56 344.958 181.86 345.318 181.86C345.678 181.86 345.978 181.56 345.978 181.2C345.978 180.84 345.678 180.54 345.318 180.54C344.958 180.54 344.658 180.84 344.658 181.2ZM344.838 183.48V189H345.798V183.48H344.838ZM348.207 186.24C348.207 185.088 349.011 184.26 350.091 184.26C350.979 184.26 351.759 184.728 352.011 185.268V184.068C351.627 183.624 350.847 183.36 350.091 183.36C348.471 183.36 347.235 184.572 347.235 186.24C347.235 187.908 348.471 189.12 350.091 189.12C350.847 189.12 351.627 188.868 352.011 188.412V187.212C351.759 187.752 350.979 188.22 350.091 188.22C349.011 188.22 348.207 187.392 348.207 186.24ZM353.937 184.776C354.201 184.584 354.789 184.2 355.581 184.2C356.181 184.2 356.745 184.488 356.745 185.04V185.964C356.433 185.76 355.965 185.568 355.317 185.568C353.865 185.568 352.965 186.252 352.965 187.416C352.965 188.544 353.817 189.12 354.861 189.12C355.689 189.12 356.409 188.796 356.745 188.208V189H357.705V185.04C357.705 183.972 356.841 183.36 355.581 183.36C354.585 183.36 353.877 183.744 353.469 184.044L353.937 184.776ZM353.937 187.38C353.937 186.708 354.393 186.3 355.365 186.3C355.893 186.3 356.325 186.408 356.745 186.624V186.84C356.745 187.872 356.061 188.268 355.101 188.268C354.453 188.268 353.937 187.968 353.937 187.38ZM359.33 179.64V189H360.29V179.64H359.33ZM366.137 186.288L365.273 186.804C365.801 188.184 366.893 189.12 368.273 189.12C369.821 189.12 370.829 188.148 370.829 186.72C370.829 185.196 369.581 184.572 368.705 184.248C367.685 183.864 366.761 183.468 366.761 182.652C366.761 181.92 367.181 181.452 368.021 181.452C368.945 181.452 369.533 182.136 369.893 182.832L370.721 182.28C370.277 181.308 369.485 180.48 368.129 180.48C366.641 180.48 365.693 181.368 365.693 182.64C365.693 184.188 366.965 184.644 367.805 184.944C368.765 185.292 369.773 185.724 369.773 186.804C369.773 187.644 369.293 188.16 368.333 188.16C367.289 188.16 366.641 187.44 366.137 186.288ZM377.031 187.716L376.251 187.224C375.879 187.824 375.327 188.22 374.523 188.22C373.515 188.22 372.855 187.596 372.771 186.48H377.115C377.127 186.384 377.127 186.288 377.127 186.192C377.127 184.452 376.083 183.36 374.523 183.36C373.095 183.36 372.063 184.296 371.835 185.652C371.799 185.844 371.787 186.036 371.787 186.24C371.787 187.908 372.903 189.12 374.403 189.12C375.831 189.12 376.479 188.556 377.031 187.716ZM374.523 184.2C375.483 184.2 375.987 184.8 376.083 185.664H372.795C372.903 184.752 373.635 184.2 374.523 184.2ZM381.071 184.536L381.599 183.744C381.311 183.444 380.963 183.36 380.567 183.36C380.147 183.36 379.715 183.648 379.403 184.116V183.48H378.443V189H379.403V185.64C379.403 184.848 379.607 184.26 380.327 184.26C380.639 184.26 380.807 184.344 381.071 184.536ZM382.556 181.2C382.556 181.56 382.856 181.86 383.216 181.86C383.576 181.86 383.876 181.56 383.876 181.2C383.876 180.84 383.576 180.54 383.216 180.54C382.856 180.54 382.556 180.84 382.556 181.2ZM382.736 183.48V189H383.696V183.48H382.736ZM385.253 183.48V184.38H385.793V189H386.753V184.38H388.013V183.48H386.753V181.56C386.753 180.768 386.969 180.48 387.329 180.48C387.521 180.48 387.749 180.516 387.917 180.792L388.445 180C388.265 179.76 387.905 179.52 387.389 179.52C386.381 179.52 385.793 180.132 385.793 181.44V183.48H385.253Z" fill="black"/>
<path d="M17.344 186.288L16.48 186.804C17.008 188.184 18.1 189.12 19.48 189.12C21.028 189.12 22.036 188.148 22.036 186.72C22.036 185.196 20.788 184.572 19.912 184.248C18.892 183.864 17.968 183.468 17.968 182.652C17.968 181.92 18.388 181.452 19.228 181.452C20.152 181.452 20.74 182.136 21.1 182.832L21.928 182.28C21.484 181.308 20.692 180.48 19.336 180.48C17.848 180.48 16.9 181.368 16.9 182.64C16.9 184.188 18.172 184.644 19.012 184.944C19.972 185.292 20.98 185.724 20.98 186.804C20.98 187.644 20.5 188.16 19.54 188.16C18.496 188.16 17.848 187.44 17.344 186.288ZM23.4742 179.64V189H24.4342V179.64H23.4742ZM26.6718 184.776C26.9358 184.584 27.5238 184.2 28.3158 184.2C28.9158 184.2 29.4798 184.488 29.4798 185.04V185.964C29.1678 185.76 28.6998 185.568 28.0518 185.568C26.5998 185.568 25.6998 186.252 25.6998 187.416C25.6998 188.544 26.5518 189.12 27.5958 189.12C28.4238 189.12 29.1438 188.796 29.4798 188.208V189H30.4398V185.04C30.4398 183.972 29.5758 183.36 28.3158 183.36C27.3198 183.36 26.6118 183.744 26.2038 184.044L26.6718 184.776ZM26.6718 187.38C26.6718 186.708 27.1278 186.3 28.0998 186.3C28.6278 186.3 29.0598 186.408 29.4798 186.624V186.84C29.4798 187.872 28.7958 188.268 27.8358 188.268C27.1878 188.268 26.6718 187.968 26.6718 187.38ZM37.5841 186.24C37.5841 184.452 36.3481 183.36 34.8481 183.36C34.0321 183.36 33.3721 183.744 32.9641 184.428V179.64H32.0041V189H32.9641V188.052C33.3721 188.736 34.0321 189.12 34.8481 189.12C36.3481 189.12 37.5841 188.028 37.5841 186.24ZM36.6121 186.24C36.6121 187.512 35.7481 188.22 34.7281 188.22C33.8881 188.22 32.9641 187.512 32.9641 186.24C32.9641 184.968 33.8881 184.26 34.7281 184.26C35.7481 184.26 36.6121 184.968 36.6121 186.24ZM42.9495 186.288L42.0855 186.804C42.6135 188.184 43.7055 189.12 45.0855 189.12C46.6335 189.12 47.6415 188.148 47.6415 186.72C47.6415 185.196 46.3935 184.572 45.5175 184.248C44.4975 183.864 43.5735 183.468 43.5735 182.652C43.5735 181.92 43.9935 181.452 44.8335 181.452C45.7575 181.452 46.3455 182.136 46.7055 182.832L47.5335 182.28C47.0895 181.308 46.2975 180.48 44.9415 180.48C43.4535 180.48 42.5055 181.368 42.5055 182.64C42.5055 184.188 43.7775 184.644 44.6175 184.944C45.5775 185.292 46.5855 185.724 46.5855 186.804C46.5855 187.644 46.1055 188.16 45.1455 188.16C44.1015 188.16 43.4535 187.44 42.9495 186.288ZM53.8437 187.716L53.0637 187.224C52.6917 187.824 52.1397 188.22 51.3357 188.22C50.3277 188.22 49.6677 187.596 49.5837 186.48H53.9277C53.9397 186.384 53.9397 186.288 53.9397 186.192C53.9397 184.452 52.8957 183.36 51.3357 183.36C49.9077 183.36 48.8757 184.296 48.6477 185.652C48.6117 185.844 48.5997 186.036 48.5997 186.24C48.5997 187.908 49.7157 189.12 51.2157 189.12C52.6437 189.12 53.2917 188.556 53.8437 187.716ZM51.3357 184.2C52.2957 184.2 52.7997 184.8 52.8957 185.664H49.6077C49.7157 184.752 50.4477 184.2 51.3357 184.2ZM57.8835 184.536L58.4115 183.744C58.1235 183.444 57.7755 183.36 57.3795 183.36C56.9595 183.36 56.5275 183.648 56.2155 184.116V183.48H55.2555V189H56.2155V185.64C56.2155 184.848 56.4195 184.26 57.1395 184.26C57.4515 184.26 57.6195 184.344 57.8835 184.536ZM59.3688 181.2C59.3688 181.56 59.6688 181.86 60.0288 181.86C60.3888 181.86 60.6888 181.56 60.6888 181.2C60.6888 180.84 60.3888 180.54 60.0288 180.54C59.6688 180.54 59.3688 180.84 59.3688 181.2ZM59.5488 183.48V189H60.5088V183.48H59.5488ZM62.0659 183.48V184.38H62.6059V189H63.5659V184.38H64.8259V183.48H63.5659V181.56C63.5659 180.768 63.7819 180.48 64.1419 180.48C64.3339 180.48 64.5619 180.516 64.7299 180.792L65.2579 180C65.0779 179.76 64.7179 179.52 64.2019 179.52C63.1939 179.52 62.6059 180.132 62.6059 181.44V183.48H62.0659Z" fill="black"/>
<path d="M268.96 23.6V32H273.28V31.04H269.98V23.6H268.96ZM274.302 24.2C274.302 24.56 274.602 24.86 274.962 24.86C275.322 24.86 275.622 24.56 275.622 24.2C275.622 23.84 275.322 23.54 274.962 23.54C274.602 23.54 274.302 23.84 274.302 24.2ZM274.482 26.48V32H275.442V26.48H274.482ZM280.96 28.64V32H281.92V28.52C281.92 27.092 281.164 26.36 280.024 26.36C279.304 26.36 278.716 26.744 278.38 27.356V26.48H277.42V32H278.38V28.64C278.38 27.848 278.944 27.26 279.784 27.26C280.564 27.26 280.96 27.728 280.96 28.64ZM283.352 32.36C283.352 33.788 284.468 34.76 286.088 34.76C287.468 34.76 288.824 33.788 288.824 31.88V26.48H287.864V27.428C287.456 26.744 286.796 26.36 285.98 26.36C284.48 26.36 283.244 27.452 283.244 29.24C283.244 31.028 284.48 32.12 285.98 32.12C286.796 32.12 287.456 31.736 287.864 31.052V31.88C287.864 33.272 286.928 33.86 286.088 33.86C285.008 33.86 284.324 33.152 284.324 32.36H283.352ZM284.216 29.24C284.216 27.968 285.08 27.26 286.1 27.26C286.94 27.26 287.864 27.968 287.864 29.24C287.864 30.512 286.94 31.22 286.1 31.22C285.08 31.22 284.216 30.512 284.216 29.24ZM291.528 29.84V26.48H290.568V29.96C290.568 31.388 291.324 32.12 292.464 32.12C293.184 32.12 293.772 31.736 294.108 31.124V32H295.068V26.48H294.108V29.84C294.108 30.632 293.544 31.22 292.704 31.22C291.924 31.22 291.528 30.752 291.528 29.84ZM296.873 24.2C296.873 24.56 297.173 24.86 297.533 24.86C297.893 24.86 298.193 24.56 298.193 24.2C298.193 23.84 297.893 23.54 297.533 23.54C297.173 23.54 296.873 23.84 296.873 24.2ZM297.053 26.48V32H298.013V26.48H297.053ZM300.146 30.056L299.39 30.524C299.798 31.424 300.65 32.12 301.67 32.12C302.738 32.12 303.566 31.628 303.566 30.44C303.566 29.516 302.822 29.084 302.042 28.76C301.43 28.508 300.674 28.34 300.674 27.812C300.674 27.38 301.058 27.236 301.538 27.236C301.982 27.236 302.486 27.56 302.75 27.932L303.518 27.44C303.182 26.828 302.402 26.36 301.526 26.36C300.638 26.36 299.738 26.816 299.738 27.848C299.738 28.892 300.566 29.168 301.322 29.468C301.958 29.72 302.57 29.972 302.57 30.548C302.57 31.016 302.186 31.22 301.67 31.22C301.142 31.22 300.53 30.728 300.146 30.056ZM303.99 26.48V27.38H304.89V32H305.85V27.38H306.75V26.48H305.85V24.56H304.89V26.48H303.99ZM307.713 24.2C307.713 24.56 308.013 24.86 308.373 24.86C308.733 24.86 309.033 24.56 309.033 24.2C309.033 23.84 308.733 23.54 308.373 23.54C308.013 23.54 307.713 23.84 307.713 24.2ZM307.893 26.48V32H308.853V26.48H307.893ZM311.262 29.24C311.262 28.088 312.066 27.26 313.146 27.26C314.034 27.26 314.814 27.728 315.066 28.268V27.068C314.682 26.624 313.902 26.36 313.146 26.36C311.526 26.36 310.29 27.572 310.29 29.24C310.29 30.908 311.526 32.12 313.146 32.12C313.902 32.12 314.682 31.868 315.066 31.412V30.212C314.814 30.752 314.034 31.22 313.146 31.22C312.066 31.22 311.262 30.392 311.262 29.24ZM316.716 30.056L315.96 30.524C316.368 31.424 317.22 32.12 318.24 32.12C319.308 32.12 320.136 31.628 320.136 30.44C320.136 29.516 319.392 29.084 318.612 28.76C318 28.508 317.244 28.34 317.244 27.812C317.244 27.38 317.628 27.236 318.108 27.236C318.552 27.236 319.056 27.56 319.32 27.932L320.088 27.44C319.752 26.828 318.972 26.36 318.096 26.36C317.208 26.36 316.308 26.816 316.308 27.848C316.308 28.892 317.136 29.168 317.892 29.468C318.528 29.72 319.14 29.972 319.14 30.548C319.14 31.016 318.756 31.22 318.24 31.22C317.712 31.22 317.1 30.728 316.716 30.056ZM325.058 23.6V32H326.078V28.64H327.338C328.958 28.64 330.194 27.668 330.194 26.12C330.194 24.572 328.958 23.6 327.338 23.6H325.058ZM327.338 24.56C328.418 24.56 329.174 25.088 329.174 26.12C329.174 27.152 328.418 27.68 327.338 27.68H326.078V24.56H327.338ZM333.965 27.536L334.494 26.744C334.206 26.444 333.858 26.36 333.462 26.36C333.042 26.36 332.61 26.648 332.298 27.116V26.48H331.338V32H332.298V28.64C332.298 27.848 332.502 27.26 333.222 27.26C333.534 27.26 333.702 27.344 333.965 27.536ZM334.795 29.24C334.795 30.908 336.031 32.12 337.651 32.12C339.271 32.12 340.507 30.908 340.507 29.24C340.507 27.572 339.271 26.36 337.651 26.36C336.031 26.36 334.795 27.572 334.795 29.24ZM335.767 29.24C335.767 28.088 336.571 27.26 337.651 27.26C338.731 27.26 339.535 28.088 339.535 29.24C339.535 30.392 338.731 31.22 337.651 31.22C336.571 31.22 335.767 30.392 335.767 29.24Z" fill="black"/>
<path d="M201.32 23.6V29.852L194.96 23.18V32H195.98V25.748L202.34 32.42V23.6H201.32ZM203.725 29.24C203.725 30.908 204.961 32.12 206.581 32.12C208.201 32.12 209.437 30.908 209.437 29.24C209.437 27.572 208.201 26.36 206.581 26.36C204.961 26.36 203.725 27.572 203.725 29.24ZM204.697 29.24C204.697 28.088 205.501 27.26 206.581 27.26C207.661 27.26 208.465 28.088 208.465 29.24C208.465 30.392 207.661 31.22 206.581 31.22C205.501 31.22 204.697 30.392 204.697 29.24ZM209.915 26.48V27.38H210.815V32H211.775V27.38H212.675V26.48H211.775V24.56H210.815V26.48H209.915ZM213.158 29.24C213.158 30.908 214.394 32.12 216.014 32.12C217.634 32.12 218.87 30.908 218.87 29.24C218.87 27.572 217.634 26.36 216.014 26.36C214.394 26.36 213.158 27.572 213.158 29.24ZM214.13 29.24C214.13 28.088 214.934 27.26 216.014 27.26C217.094 27.26 217.898 28.088 217.898 29.24C217.898 30.392 217.094 31.22 216.014 31.22C214.934 31.22 214.13 30.392 214.13 29.24ZM224.231 29.288L223.367 29.804C223.895 31.184 224.987 32.12 226.367 32.12C227.915 32.12 228.923 31.148 228.923 29.72C228.923 28.196 227.675 27.572 226.799 27.248C225.779 26.864 224.855 26.468 224.855 25.652C224.855 24.92 225.275 24.452 226.115 24.452C227.039 24.452 227.627 25.136 227.987 25.832L228.815 25.28C228.371 24.308 227.579 23.48 226.223 23.48C224.735 23.48 223.787 24.368 223.787 25.64C223.787 27.188 225.059 27.644 225.899 27.944C226.859 28.292 227.867 28.724 227.867 29.804C227.867 30.644 227.387 31.16 226.427 31.16C225.383 31.16 224.735 30.44 224.231 29.288ZM235.125 30.716L234.345 30.224C233.973 30.824 233.421 31.22 232.617 31.22C231.609 31.22 230.949 30.596 230.865 29.48H235.209C235.221 29.384 235.221 29.288 235.221 29.192C235.221 27.452 234.177 26.36 232.617 26.36C231.189 26.36 230.157 27.296 229.929 28.652C229.893 28.844 229.881 29.036 229.881 29.24C229.881 30.908 230.997 32.12 232.497 32.12C233.925 32.12 234.573 31.556 235.125 30.716ZM232.617 27.2C233.577 27.2 234.081 27.8 234.177 28.664H230.889C230.997 27.752 231.729 27.2 232.617 27.2ZM239.165 27.536L239.693 26.744C239.405 26.444 239.057 26.36 238.661 26.36C238.241 26.36 237.809 26.648 237.497 27.116V26.48H236.537V32H237.497V28.64C237.497 27.848 237.701 27.26 238.421 27.26C238.733 27.26 238.901 27.344 239.165 27.536ZM240.65 24.2C240.65 24.56 240.95 24.86 241.31 24.86C241.67 24.86 241.97 24.56 241.97 24.2C241.97 23.84 241.67 23.54 241.31 23.54C240.95 23.54 240.65 23.84 240.65 24.2ZM240.83 26.48V32H241.79V26.48H240.83ZM243.347 26.48V27.38H243.887V32H244.847V27.38H246.107V26.48H244.847V24.56C244.847 23.768 245.063 23.48 245.423 23.48C245.615 23.48 245.843 23.516 246.011 23.792L246.539 23C246.359 22.76 245.999 22.52 245.483 22.52C244.475 22.52 243.887 23.132 243.887 24.44V26.48H243.347Z" fill="black"/>
<path d="M252 26.48L254.64 32.42L257.28 26.48H256.2L254.64 30.38L253.08 26.48H252ZM258.341 30.056L257.585 30.524C257.993 31.424 258.845 32.12 259.865 32.12C260.933 32.12 261.761 31.628 261.761 30.44C261.761 29.516 261.017 29.084 260.237 28.76C259.625 28.508 258.869 28.34 258.869 27.812C258.869 27.38 259.253 27.236 259.733 27.236C260.177 27.236 260.681 27.56 260.945 27.932L261.713 27.44C261.377 26.828 260.597 26.36 259.721 26.36C258.833 26.36 257.933 26.816 257.933 27.848C257.933 28.892 258.761 29.168 259.517 29.468C260.153 29.72 260.765 29.972 260.765 30.548C260.765 31.016 260.381 31.22 259.865 31.22C259.337 31.22 258.725 30.728 258.341 30.056Z" fill="#8D8D8D"/>
</svg>
